<?xml version="1.0" encoding="UTF-8" standalone="no"?><!DOCTYPE svg PUBLIC "-//W3C//DTD SVG 1.1//EN" "http://www.w3.org/Graphics/SVG/1.1/DTD/svg11.dtd"><svg width="100%" height="100%" viewBox="0 0 48 52" version="1.1" xmlns="http://www.w3.org/2000/svg" xmlns:xlink="http://www.w3.org/1999/xlink" xml:space="preserve" style="fill-rule:evenodd;clip-rule:evenodd;stroke-linejoin:round;stroke-miterlimit:1.41421;"><path id="node1" d="M21.504,0.134c-5.904,0.744 -9.864,3.48 -11.568,8.04c-0.72,1.872 -0.768,2.904 -0.168,3.216c0.24,0.12 1.968,0.408 3.864,0.624c3.816,0.432 3.888,0.408 4.368,-1.032c0.768,-2.448 2.352,-3.648 4.968,-3.816c2.568,-0.168 4.344,1.008 4.848,3.192c0.336,1.44 0.288,4.176 -0.048,4.272c-0.168,0.048 -1.92,0.264 -3.888,0.48c-6.576,0.744 -9.912,1.968 -12.456,4.584c-1.992,2.016 -3.288,5.256 -3.288,8.28c0,1.512 0.6,4.176 1.248,5.496c1.728,3.576 6.024,5.448 11.088,4.824c3.12,-0.384 5.304,-1.416 7.752,-3.672l1.104,-1.008l0.504,0.72c0.264,0.384 1.224,1.464 2.112,2.352c1.344,1.416 1.68,1.632 2.16,1.464c0.288,-0.096 1.824,-1.248 3.36,-2.568c1.992,-1.704 2.832,-2.568 2.832,-2.928c0,-0.288 -0.432,-1.104 -0.936,-1.824c-1.872,-2.592 -1.776,-2.112 -1.944,-12.936c-0.144,-9.336 -0.168,-9.768 -0.672,-11.064c-0.96,-2.424 -2.448,-4.056 -4.8,-5.232c-2.448,-1.248 -7.056,-1.896 -10.44,-1.464Zm6.504,22.848c-0.168,3.528 -0.696,5.232 -2.208,6.864c-1.2,1.32 -2.112,1.728 -3.816,1.728c-2.304,0 -3.768,-1.584 -3.96,-4.32c-0.312,-4.368 2.952,-7.152 8.448,-7.176l1.656,-0.024l-0.12,2.928Z" style="fill:#221f1f;fill-rule:nonzero;"/><g><path id="node40" d="M41.136,38.942c-1.296,0.384 -2.64,1.224 -2.4,1.488c0.096,0.072 1.488,0.096 3.096,0.072c4.2,-0.12 4.344,0.12 2.76,4.68c-0.384,1.08 -0.696,2.016 -0.696,2.088c0,0.408 0.768,0.048 1.416,-0.696c1.44,-1.656 2.424,-4.176 2.424,-6.288c0,-1.152 -0.048,-1.248 -0.744,-1.488c-1.08,-0.384 -4.44,-0.288 -5.856,0.144Z" style="fill:#f90;fill-rule:nonzero;"/><path id="node41" d="M0.096,39.014c-0.312,0.504 0.192,1.224 2.304,3.216c6.168,5.808 13.776,9.024 21.336,9.024c5.544,0 11.448,-1.8 16.2,-4.944c2.448,-1.608 3.72,-2.784 3.72,-3.432c0,-0.888 -0.672,-0.84 -3.072,0.288c-10.728,4.968 -22.464,4.896 -33.096,-0.192c-2.304,-1.08 -3.6,-1.848 -6.72,-3.888c-0.336,-0.24 -0.552,-0.264 -0.672,-0.072Z" style="fill:#f90;fill-rule:nonzero;"/></g></svg>